####
#
# OBJ File Generated by Meshlab
#
####
# Object plane_small_T.obj
#
# Vertices: 4
# Faces: 2
#
####
vn 0.000000 0.000000 -1.000000
v -30.000000 -30.000000 75.000000 0.749020 0.749020 0.749020
vn 0.000000 0.000000 -1.000000
v 30.000000 -30.000000 75.000000 0.749020 0.749020 0.749020
vn 0.000000 0.000000 -1.000000
v 30.000000 30.000000 75.000000 0.749020 0.749020 0.749020
vn 0.000000 0.000000 -1.000000
v -30.000000 30.000000 75.000000 0.749020 0.749020 0.749020
# 4 vertices, 0 vertices normals

f 1//1 3//3 2//2
f 1//1 4//4 3//3
# 2 faces, 0 coords texture

# End of File
